<svg width="601" height="196" viewBox="0 0 601 196" fill="none" xmlns="http://www.w3.org/2000/svg">
<path d="M69.4376 84H50.3976L49.8026 73.052L49.2076 68.292L35.7606 68.054L24.0986 68.411L22.5516 71.981L18.8626 84H0.298644L34.2136 7.245H56.8236L69.4376 84ZM47.4226 54.131L43.6146 24.619H42.4246L30.0486 54.012L38.6166 54.25L47.4226 54.131ZM146.741 59.843L144.599 84H124.131L103.187 35.924H101.997L99.2602 57.106L96.6422 84H79.3872L83.1952 61.39L88.9072 7.245H109.256L130.319 55.321H131.509L136.864 7.95899L154.476 6.888L146.741 59.843ZM186.893 58.653L185.941 69.482C185.306 74.1627 183.997 78.1293 182.014 81.382C180.11 84.6347 177.254 87.4907 173.446 89.95C169.638 92.4093 164.56 94.71 158.214 96.852L154.049 86.975L154.168 85.428C159.007 83.048 162.458 80.668 164.521 78.288C166.663 75.908 167.972 72.814 168.448 69.006L169.519 60.557L173.803 20.93L162.498 21.168L161.427 19.859L163.807 7.245H194.39L186.893 58.653ZM228.875 22.12L226.614 37.828L238.99 37.947L251.247 37.59L252.199 38.899L249.224 52.822L235.896 52.465L224.472 52.584L223.52 59.486L222.568 69.244L235.063 69.363L253.984 68.649L254.817 70.077L251.961 84H202.338L206.027 61.271L211.858 7.245H262.076L263.028 8.673L259.934 22.596L241.846 22.001L228.875 22.12ZM308.328 69.839L305.472 84H262.989L266.797 61.271L272.509 7.245H291.668L284.29 59.486L283.457 68.411H307.495L308.328 69.839ZM377.28 84H358.24L357.645 73.052L357.05 68.292L343.603 68.054L331.941 68.411L330.394 71.981L326.705 84H308.141L342.056 7.245H364.666L377.28 84ZM355.265 54.131L351.457 24.619H350.267L337.891 54.012L346.459 54.25L355.265 54.131ZM421.859 6.055C428.761 6.055 435.544 7.40366 442.208 10.101L437.329 25.928L434.473 27.118C431.776 25.1347 428.999 23.5877 426.143 22.477C423.287 21.3663 420.748 20.811 418.527 20.811C415.75 20.811 413.529 21.4853 411.863 22.834C410.197 24.1827 409.364 25.809 409.364 27.713C409.364 29.617 410.197 31.283 411.863 32.711C413.608 34.0597 416.385 35.7257 420.193 37.709C424.001 39.7717 427.095 41.636 429.475 43.302C431.855 44.968 433.918 47.1497 435.663 49.847C437.408 52.465 438.281 55.6383 438.281 59.367C438.281 64.0477 436.893 68.3713 434.116 72.338C431.419 76.3047 427.611 79.4383 422.692 81.739C417.853 84.0397 412.339 85.19 406.151 85.19C398.297 85.19 390.483 83.6033 382.708 80.43L387.349 63.413L389.372 62.342C392.387 65.1187 395.758 67.2607 399.487 68.768C403.216 70.2753 406.508 71.029 409.364 71.029C412.458 71.029 414.838 70.3547 416.504 69.006C418.17 67.578 419.003 65.8723 419.003 63.889C419.003 61.8263 418.091 60.081 416.266 58.653C414.521 57.1457 411.784 55.4003 408.055 53.417C404.406 51.513 401.391 49.7677 399.011 48.181C396.631 46.515 394.568 44.373 392.823 41.755C391.157 39.0577 390.324 35.8447 390.324 32.116C390.324 27.2767 391.673 22.8737 394.37 18.907C397.147 14.9403 400.915 11.8067 405.675 9.50599C410.514 7.20533 415.909 6.055 421.859 6.055Z" fill="#FE7502"/>
<path d="M262.279 144.7C267.346 153.9 273.679 163.9 281.279 174.7L280.779 176.4C275.313 177.733 269.979 178.633 264.779 179.1L263.179 178.1C256.579 166.033 251.113 155.367 246.779 146.1L245.179 157.4L243.279 178H227.379L230.679 158.9L235.479 113.5H251.579L247.379 142.5L265.579 120L269.979 113.5H286.979L262.279 144.7ZM304.457 157.4L302.657 178H286.757L289.957 158.9L294.757 113.5H310.857L304.457 157.4ZM366.339 114.7L363.939 126.4L351.739 125.8H348.939L344.539 157.4L342.639 178H326.739L330.039 158.9L333.639 125.8H330.739L318.139 126.4L317.339 125.2L319.739 113.5H365.639L366.339 114.7ZM398.3 112.6C401.3 112.6 404.234 112.9 407.1 113.5C410.034 114.1 412.634 114.933 414.9 116L410.6 129L409.3 129.6C407.567 128.333 405.6 127.367 403.4 126.7C401.2 125.967 398.967 125.6 396.7 125.6C391.034 125.6 386.834 127.567 384.1 131.5C381.434 135.433 380.1 141.4 380.1 149.4C380.1 160.267 384.234 165.7 392.5 165.7C394.7 165.7 397.067 165.4 399.6 164.8C402.134 164.133 404.467 163.267 406.6 162.2L407.8 163L404.9 176.1C402.367 177.167 399.934 177.9 397.6 178.3C395.334 178.767 392.934 179 390.4 179C381.6 179 374.834 176.667 370.1 172C365.434 167.267 363.1 160.6 363.1 152C363.1 143.8 364.467 136.767 367.2 130.9C369.934 124.967 373.934 120.433 379.2 117.3C384.534 114.167 390.9 112.6 398.3 112.6ZM478.175 113.5L471.775 157.4L469.875 178H453.975L457.275 158.9L457.975 152.3L445.075 152.1L433.575 152.4L432.875 157.4L431.075 178H415.175L418.375 158.9L423.175 113.5H439.275L435.475 139.2L447.575 139.5L459.275 139.3L461.975 113.5H478.175ZM506.713 126L504.813 139.2L515.213 139.3L525.513 139L526.313 140.1L523.813 151.8L512.613 151.5L503.013 151.6L502.213 157.4L501.413 165.6L511.913 165.7L527.813 165.1L528.513 166.3L526.113 178H484.413L487.513 158.9L492.413 113.5H534.613L535.413 114.7L532.813 126.4L517.613 125.9L506.713 126ZM592.38 157.7L590.58 178H573.38L555.78 137.6H554.78L552.48 155.4L550.28 178H535.78L538.98 159L543.78 113.5H560.88L578.58 153.9H579.58L584.08 114.1L598.88 113.2L592.38 157.7Z" fill="#4A4A4A"/>
</svg>
